<svg width="0" height="0" class="hidden">
<symbol fill="none" xmlns="http://www.w3.org/2000/svg" viewBox="0 0 25 16" id="arrow-left">
    <path d="M0.292893 7.29289C-0.0976314 7.68342 -0.0976315 8.31658 0.292892 8.7071L6.65685 15.0711C7.04738 15.4616 7.68054 15.4616 8.07107 15.0711C8.46159 14.6805 8.46159 14.0474 8.07107 13.6569L2.41421 8L8.07107 2.34314C8.46159 1.95262 8.46159 1.31946 8.07107 0.928931C7.68054 0.538406 7.04738 0.538406 6.65686 0.928931L0.292893 7.29289ZM25 7L1 7L1 9L25 9L25 7Z" fill="black"></path>
</symbol>
<symbol fill="none" xmlns="http://www.w3.org/2000/svg" viewBox="0 0 25 16" id="arrow-right">
    <path d="M24.7071 8.70711C25.0976 8.31658 25.0976 7.68342 24.7071 7.29289L18.3431 0.928932C17.9526 0.538408 17.3195 0.538408 16.9289 0.928932C16.5384 1.31946 16.5384 1.95262 16.9289 2.34315L22.5858 8L16.9289 13.6569C16.5384 14.0474 16.5384 14.6805 16.9289 15.0711C17.3195 15.4616 17.9526 15.4616 18.3431 15.0711L24.7071 8.70711ZM0 9H24V7H0V9Z" fill="black"></path>
  </symbol>
  <symbol fill="none" xmlns="http://www.w3.org/2000/svg" viewBox="0 0 24 24" id="close">
    <path d="M22 2L2 22M22 22L2 2L22 22Z" stroke="#222222" stroke-width="2"></path>
  </symbol>
</svg>