<svg width="0" height="0" class="hidden">
<symbol fill="none" xmlns="http://www.w3.org/2000/svg" viewBox="0 0 25 16" id="arrow-left">
    <path d="M0.292893 7.29289C-0.0976314 7.68342 -0.0976315 8.31658 0.292892 8.7071L6.65685 15.0711C7.04738 15.4616 7.68054 15.4616 8.07107 15.0711C8.46159 14.6805 8.46159 14.0474 8.07107 13.6569L2.41421 8L8.07107 2.34314C8.46159 1.95262 8.46159 1.31946 8.07107 0.928931C7.68054 0.538406 7.04738 0.538406 6.65686 0.928931L0.292893 7.29289ZM25 7L1 7L1 9L25 9L25 7Z" fill="black"></path>
</symbol>
<symbol fill="none" xmlns="http://www.w3.org/2000/svg" viewBox="0 0 25 16" id="arrow-right">
    <path d="M24.7071 8.70711C25.0976 8.31658 25.0976 7.68342 24.7071 7.29289L18.3431 0.928932C17.9526 0.538408 17.3195 0.538408 16.9289 0.928932C16.5384 1.31946 16.5384 1.95262 16.9289 2.34315L22.5858 8L16.9289 13.6569C16.5384 14.0474 16.5384 14.6805 16.9289 15.0711C17.3195 15.4616 17.9526 15.4616 18.3431 15.0711L24.7071 8.70711ZM0 9H24V7H0V9Z" fill="black"></path>
  </symbol>
  <symbol fill="none" xmlns="http://www.w3.org/2000/svg" viewBox="0 0 24 24" id="close">
    <path d="M22 2L2 22M22 22L2 2L22 22Z" stroke="#222222" stroke-width="2"></path>
  </symbol>
  <symbol fill="none" xmlns="http://www.w3.org/2000/svg" viewBox="0 0 24 24" id="shopping-cart">
    <path d="M2.86905 4H5.90127L6.98147 14.7399C7.02637 15.036 7.17675 15.3058 7.40492 15.4998C7.63308 15.6937 7.92366 15.7986 8.22308 15.7953H16.0452C16.316 15.8094 16.584 15.7345 16.8081 15.5821C17.0323 15.4296 17.2004 15.208 17.2868 14.951L18.9382 9.98456C18.9998 9.79784 19.0161 9.59916 18.9859 9.4049C18.9557 9.21063 18.8797 9.02631 18.7643 8.86711C18.6442 8.69785 18.4834 8.56144 18.2969 8.47033C18.1104 8.37923 17.9039 8.33636 17.6966 8.34563H6.33584" stroke="white" stroke-width="2" stroke-linecap="round" stroke-linejoin="round"></path>
    <path d="M15.6907 21.24C14.7961 21.24 14.0707 20.5146 14.0707 19.62C14.0707 18.7254 14.7961 18 15.6907 18C16.5853 18 17.3107 18.7254 17.3107 19.62C17.3107 20.5146 16.5853 21.24 15.6907 21.24Z" fill="white"></path>
    <path d="M7.61991 21.24C6.72518 21.24 5.99991 20.5146 5.99991 19.62C5.99991 18.7254 6.72518 18 7.61991 18C8.5146 18 9.23991 18.7254 9.23991 19.62C9.23991 20.5146 8.5146 21.24 7.61991 21.24Z" fill="white"></path>
  </symbol>
</svg>